<?xml version="1.0" encoding="UTF-8" standalone="no"?>
<svg
   xmlns:dc="http://purl.org/dc/elements/1.1/"
   xmlns:cc="http://creativecommons.org/ns#"
   xmlns:rdf="http://www.w3.org/1999/02/22-rdf-syntax-ns#"
   xmlns:svg="http://www.w3.org/2000/svg"
   xmlns="http://www.w3.org/2000/svg"
   xmlns:sodipodi="http://sodipodi.sourceforge.net/DTD/sodipodi-0.dtd"
   xmlns:inkscape="http://www.inkscape.org/namespaces/inkscape"
   viewBox="0 0 186.89 186.89"
   version="1.1"
   id="svg21"
   sodipodi:docname="IconCake.svg"
   width="186.89"
   height="186.89"
   inkscape:version="0.92.4 (5da689c313, 2019-01-14)">
  <metadata
     id="metadata25">
    <rdf:RDF>
      <cc:Work
         rdf:about="">
        <dc:format>image/svg+xml</dc:format>
        <dc:type
           rdf:resource="http://purl.org/dc/dcmitype/StillImage" />
        <dc:title>IconCake</dc:title>
      </cc:Work>
    </rdf:RDF>
  </metadata>
  <sodipodi:namedview
     pagecolor="#ffffff"
     bordercolor="#666666"
     borderopacity="1"
     objecttolerance="10"
     gridtolerance="10"
     guidetolerance="10"
     inkscape:pageopacity="0"
     inkscape:pageshadow="2"
     inkscape:window-width="1920"
     inkscape:window-height="1017"
     id="namedview23"
     showgrid="false"
     inkscape:zoom="0.30125246"
     inkscape:cx="632.35999"
     inkscape:cy="93.445"
     inkscape:window-x="-8"
     inkscape:window-y="-8"
     inkscape:window-maximized="1"
     inkscape:current-layer="svg21" />
  <defs
     id="defs4">
    <style
       id="style2">.cls-1,.cls-2,.cls-3,.cls-4{fill:none;stroke:#fff;stroke-miterlimit:10;stroke-width:3px;}.cls-2{stroke-dasharray:7.92 7.92;}.cls-3{stroke-dasharray:7.92 7.92 7.92 7.92;}.cls-4{stroke-dasharray:8 8 8 8;}.cls-5{fill:#fff;}</style>
  </defs>
  <title
     id="title6">IconCake</title>
  <path
     style="fill:#404040;fill-opacity:1"
     inkscape:connector-curvature="0"
     id="path18"
     d="m 139.57138,105.31869 h -0.1 a 17.21,17.21 0 0 0 3.82,-10.719999 c -0.1,-5.92 -3.64,-11.71 -10.51,-17.2 a 14.58,14.58 0 0 0 0.53,-7.63 c -2,-9.87 -12.72,-13.82 -22.55,-16 a 13.13,13.13 0 0 0 0.54,-3.67 12.78,12.78 0 0 0 -6.65,-11.19 c 3.93,-8 9.18,-8.88 11.3,-8.88 a 11.36,11.36 0 0 1 5.35,1.07 2.1944134,2.1944134 0 1 0 2.07,-3.87 15.64,15.64 0 0 0 -7.43,-1.62 c -4.22,0 -8.17,1.94 -11.43,5.61 a 26.11,26.11 0 0 0 -4.07,6.26 12,12 0 0 0 -1.900001,-0.15 12.75,12.75 0 0 0 -11.13,6.55 14.34,14.34 0 0 1 -2.31,-3.34 2.15,2.15 0 0 0 -1.32,-1.15 2.18,2.18 0 0 0 -1.73,0.18 33.33,33.33 0 0 0 -14.26,14.59 29.5,29.5 0 0 0 -2.94,12.61 l -0.54,0.21 c -5.69,2.44 -9,7.08 -9.49,13.43 a 23.86,23.86 0 0 0 0.39,6.43 c -4.53,1.62 -7.68,4.73 -8.81,8.79 a 13.15,13.15 0 0 0 1.15,9.679999 h -1.75 a 2.21,2.21 0 0 0 -2.15,2.69 l 10.92,47.93 a 6.85,6.85 0 0 0 6.72,5.36 h 62.840001 a 6.84,6.84 0 0 0 6.71,-5.36 l 10.89,-47.92 a 2.18,2.18 0 0 0 -0.42,-1.86 2.22,2.22 0 0 0 -1.72,-0.83 z M 98.571379,41.738691 a 8.35,8.35 0 1 1 -8.38,8.36 8.36,8.36 0 0 1 8.38,-8.36 z m -37.31,115.149999 a 2.47,2.47 0 0 1 -2.43,-1.93 l -10.26,-45.24 h 7.11 l 7.89,46.09 a 7.1,7.1 0 0 0 0.26,1.08 z m 7.85,0 c -0.4,0 -1.06,-0.63 -1.26,-1.82 l -7.73,-45.35 h 7.16 l 5.22,46 a 10.69,10.69 0 0 0 0.21,1.2 z m 8.26,0 a 4,4 0 0 1 -0.5,-1.69 l -5.17,-45.48 h 7.18 l 2.61,45.85 a 12.93,12.93 0 0 0 0.12,1.32 z m 13.11,0 h -4.42 a 10.88,10.88 0 0 1 -0.18,-1.57 l -2.6,-45.6 h 7.2 z m 9,-1.57 a 10.62,10.62 0 0 1 -0.19,1.57 h -4.41 v -47.17 h 7.190001 z m 8.510001,1.57 h -4.24 q 0.08,-0.61 0.12,-1.32 l 2.61,-45.85 h 7.18 l -5.17,45.48 a 4,4 0 0 1 -0.5,1.69 z m 8.25,0 h -3.59 a 10.69,10.69 0 0 0 0.21,-1.2 l 5.22,-46 h 7.16 l -7.73,45.41 c -0.21,1.19 -0.87,1.82 -1.27,1.82 z m 10.33,-1.93 a 2.47,2.47 0 0 1 -2.43,1.93 h -2.57 a 8.53,8.53 0 0 0 0.26,-1.08 l 7.86,-46.09 h 7.11 z m 7,-49.64 H 99.871379 a 159.79,159.79 0 0 0 17.370001,-10.429999 2.2,2.2 0 0 0 -2.52,-3.6 170.79,170.79 0 0 1 -24.820001,13.999999 h -37 a 9.08,9.08 0 0 1 -2.26,-8.499999 c 0.91,-3.27 3.86,-5.56 8.31,-6.45 4.17,-0.84 15.21,-3.16 27.52,-6.7 a 2.2,2.2 0 1 0 -1.21,-4.22 c -11,3.15 -20.92,5.33 -25.79,6.33 -0.67,-3.62 -1.11,-11.45 6.58,-14.75 3,-1.27 9,-2.36 15.35,-3.52 l 2.17,-0.38 a 2.2,2.2 0 0 0 -0.8,-4.32 l -2.12,0.38 c -4.11,0.75 -8.08,1.48 -11.32,2.27 0.3,-5.12 2.47,-14.17 13,-20.92 a 20.69,20.69 0 0 0 2.33,2.86 c 0.47,0.49 0.87,0.87 1.23,1.18 a 12.74,12.74 0 0 0 22.790001,9.24 58,58 0 0 1 10.81,3.23 2,2 0 0 1 0.33,1.91 c -0.55,1.71 -4,6.41 -23.730001,13.12 a 2.2,2.2 0 0 0 0.71,4.28 2.15,2.15 0 0 0 0.7,-0.12 109.92,109.92 0 0 0 17.070001,-7.11 c 5.38,-2.95 8.46,-5.83 9.41,-8.81 q 0.11,-0.33 0.18,-0.66 a 11.37,11.37 0 0 1 4.82,7 c 0.8,4 -1,8.4 -5.4,13.1 a 2.2,2.2 0 0 0 0.11,3.11 2.19,2.19 0 0 0 3.1,-0.11 31.6,31.6 0 0 0 4,-5.25 c 5.26,4.42 8,8.85 8,13.17 0.08,4.799998 -3.09,8.569999 -5.35,10.649999 z m 0,0"
     class="cls-5" />
</svg>
