<?xml version="1.0" encoding="UTF-8" standalone="no"?>
<svg
   xmlns:dc="http://purl.org/dc/elements/1.1/"
   xmlns:cc="http://creativecommons.org/ns#"
   xmlns:rdf="http://www.w3.org/1999/02/22-rdf-syntax-ns#"
   xmlns:svg="http://www.w3.org/2000/svg"
   xmlns="http://www.w3.org/2000/svg"
   xmlns:sodipodi="http://sodipodi.sourceforge.net/DTD/sodipodi-0.dtd"
   xmlns:inkscape="http://www.inkscape.org/namespaces/inkscape"
   viewBox="0 0 186.89 186.89"
   version="1.1"
   id="svg27"
   sodipodi:docname="IconCoke.svg"
   width="186.89"
   height="186.89"
   inkscape:version="0.92.4 (5da689c313, 2019-01-14)">
  <metadata
     id="metadata31">
    <rdf:RDF>
      <cc:Work
         rdf:about="">
        <dc:format>image/svg+xml</dc:format>
        <dc:type
           rdf:resource="http://purl.org/dc/dcmitype/StillImage" />
        <dc:title>IconCoke_1</dc:title>
      </cc:Work>
    </rdf:RDF>
  </metadata>
  <sodipodi:namedview
     pagecolor="#ffffff"
     bordercolor="#666666"
     borderopacity="1"
     objecttolerance="10"
     gridtolerance="10"
     guidetolerance="10"
     inkscape:pageopacity="0"
     inkscape:pageshadow="2"
     inkscape:window-width="1920"
     inkscape:window-height="1017"
     id="namedview29"
     showgrid="false"
     inkscape:zoom="0.30106915"
     inkscape:cx="632.745"
     inkscape:cy="93.445"
     inkscape:window-x="-8"
     inkscape:window-y="-8"
     inkscape:window-maximized="1"
     inkscape:current-layer="svg27" />
  <defs
     id="defs4">
    <style
       id="style2">.cls-1{fill:#fff;}.cls-2,.cls-3,.cls-4,.cls-5{fill:none;stroke:#fff;stroke-miterlimit:10;stroke-width:3px;}.cls-3{stroke-dasharray:7.92 7.92;}.cls-4{stroke-dasharray:7.92 7.92 7.92 7.92;}.cls-5{stroke-dasharray:8 8 8 8;}</style>
  </defs>
  <title
     id="title6">IconCoke_1</title>
  <g
     id="g851"
     style="fill:#404040;fill-opacity:1"
     transform="translate(-553.70919,3.4650006)">
    <path
       class="cls-1"
       d="m 672.28,106.79 a 2.8,2.8 0 1 0 2.8,-2.8 2.8,2.8 0 0 0 -2.8,2.8 z m 0,0"
       id="path8"
       inkscape:connector-curvature="0"
       style="fill:#404040;fill-opacity:1" />
    <path
       class="cls-1"
       d="m 594.9,62.47 c -1.17,3.4 -2.27,6.61 -3.24,9.9 a 71.73,71.73 0 0 0 -2.73,29.93 2,2 0 0 0 0,0.24 c 3.46,18.58 6.46,26.61 2.73,33.7 -2.14,4.07 -4.56,14.3 -0.76,20.6 1.35,2.23 4,4.89 9.25,4.89 h 26.38 c 5.23,0 7.94,-2.67 9.28,-4.9 3.79,-6.27 1.35,-16.5 -0.8,-20.59 -3.74,-7.1 -0.71,-15.17 2.74,-33.7 a 2,2 0 0 0 0,-0.24 71.85,71.85 0 0 0 -2.73,-29.93 c -1,-3.39 -2.15,-6.74 -3.27,-10 A 139.39,139.39 0 0 1 625.07,35 a 2.81,2.81 0 0 0 2.37,-2.77 v -5.6 A 8.42,8.42 0 0 0 619,18.23 h -11.18 a 8.42,8.42 0 0 0 -8.41,8.41 v 5.6 a 2.81,2.81 0 0 0 2.28,2.76 139.51,139.51 0 0 1 -6.76,27.38 z M 630.29,76 a 64.65,64.65 0 0 1 2,25.58 l -1.61,8 h -34.59 l -1.6,-8 a 64.66,64.66 0 0 1 2,-25.58 z m 0.77,78 c -0.57,0.94 -1.65,2.19 -4.49,2.19 h -26.38 c -2.81,0 -3.88,-1.24 -4.45,-2.17 -2.25,-3.74 -0.94,-11.56 0.93,-15.1 4,-7.65 1.94,-15.41 0.54,-23.65 h 32.33 c -1.4,8.26 -3.47,16 0.55,23.65 1.87,3.55 3.21,11.38 1,15.08 z M 605,26.64 a 2.8,2.8 0 0 1 2.81,-2.8 H 619 a 2.8,2.8 0 0 1 2.8,2.8 v 2.8 H 605 Z m -4.77,37.56 a 144.17,144.17 0 0 0 7.11,-29.15 h 12.08 a 144.17,144.17 0 0 0 7.11,29.15 c 0.69,2 1.4,4.09 2.07,6.16 h -30.44 c 0.64,-2 2.07,-6.16 2.07,-6.16 z m 0,0"
       id="path10"
       inkscape:connector-curvature="0"
       style="fill:#404040;fill-opacity:1" />
    <path
       class="cls-1"
       d="M 613.42,104 A 11.21,11.21 0 1 0 602.21,92.79 11.22,11.22 0 0 0 613.42,104 Z m 0,-16.81 a 5.61,5.61 0 1 1 -5.6,5.6 5.61,5.61 0 0 1 5.6,-5.6 z m 0,0"
       id="path12"
       inkscape:connector-curvature="0"
       style="fill:#404040;fill-opacity:1" />
    <path
       class="cls-1"
       d="m 687.55,70.06 a 2.8,2.8 0 1 0 -2.51,-5 l -11.21,5.61 a 2.79,2.79 0 0 0 -1.55,2.5 v 19.61 h -19.62 a 8.41,8.41 0 0 0 -2.06,16.56 c 0.65,6.62 3.82,39.22 4.37,44.82 a 8.38,8.38 0 0 0 8.36,7.57 h 23.5 a 8.39,8.39 0 0 0 8.37,-7.58 c 0.54,-5.57 3.71,-38.17 4.36,-44.81 A 8.41,8.41 0 0 0 697.5,92.78 H 677.88 V 74.89 Z m -0.72,86.06 h -23.5 a 2.8,2.8 0 0 1 -2.79,-2.51 l -0.3,-3.09 h 29.68 l -0.3,3.08 a 2.79,2.79 0 0 1 -2.79,2.52 z m 13.48,-54.93 a 2.8,2.8 0 0 1 -2.81,2.8 h -11.21 a 2.81,2.81 0 0 0 0,5.61 h 7.61 l -3.43,35.31 H 659.7 l -3.44,-35.31 h 7.61 a 2.81,2.81 0 0 0 0,-5.61 h -11.21 a 2.8,2.8 0 1 1 0,-5.6 h 44.84 a 2.8,2.8 0 0 1 2.81,2.8 z m 0,0"
       id="path14"
       inkscape:connector-curvature="0"
       style="fill:#404040;fill-opacity:1" />
  </g>
</svg>
